<svg xmlns="http://www.w3.org/2000/svg" id="匯百川_logo_white" width="287.405" height="48.303" viewBox="0 0 287.405 48.303">
    <defs>
        <style>
            .cls-1{fill:#fff}
        </style>
    </defs>
    <path id="Path_369" d="M243.2 284.734v2.541h-28.05V259.7h27.464v2.541h-24.49v22.5zm-15.964-1.043v-12.119a22.914 22.914 0 0 1-1.8 2.094 22.461 22.461 0 0 0-1.438-1.93l-1.3 1.6a18.043 18.043 0 0 0-4.472-3.041l1.573-1.8a20.9 20.9 0 0 1 4.241 2.549 23.454 23.454 0 0 0 5.165-8.616l2.482.745a28.991 28.991 0 0 1-1.334 3.2h4.4c-.358-.909-.812-1.856-1.237-2.705l2.676-.745a17.469 17.469 0 0 1 1.662 3.458h4.278v2.385h-5.321v2.236h4.315v2.198h-4.308v2.236h4.308v2.191h-4.308v2.422h5.418v2.385h-12.29v1.245zm-8-2.154a68.555 68.555 0 0 0 4.338-7.05l1.766 1.863c-1.178 2.288-2.646 4.926-4.017 7.117zm4.9-14.1a18.718 18.718 0 0 0-4.278-2.981l1.632-1.766a18.812 18.812 0 0 1 4.375 2.81zm9.957 1.3h-4.144v2.236h4.181zm0 4.472h-4.144v2.236h4.181zm0 4.472h-4.144v2.363h4.181z" class="cls-1" transform="translate(-215.15 -258.485)"/>
    <path id="Path_370" d="M273.651 263.351c-.425 1.491-.745 3.041-1.178 4.345h10.74v20.995h-3.227v-2.057h-15.42v2.057H261.5V267.7h7.87a43.917 43.917 0 0 0 .745-4.345H258v-2.985h28.321v2.981zm6.335 7.185h-15.42v5.217h15.442zm0 13.289V278.5h-15.42v5.321z" class="cls-1" transform="translate(-226.064 -258.656)"/>
    <path id="Path_371" d="M307.551 260.367v11.068c0 6.238-.492 12.6-4.733 17.47a14.028 14.028 0 0 0-2.579-2.191c3.726-4.278 4.211-9.793 4.211-15.278v-11.069zm10.084 1.371v23.932h-3.1v-23.932zm10.516-1.438v28.276h-3.2V260.3z" class="cls-1" transform="translate(-236.823 -258.638)"/>
    <path id="Path_372" d="M355.187 278.091a46.684 46.684 0 0 0-2.549-4.308v14.265h-2.944v-13.221a31.8 31.8 0 0 1-4.174 7.609 19.771 19.771 0 0 0-1.491-2.81 32.681 32.681 0 0 0 5.217-9.569h-4.8v-2.84h5.217v-4.375c-1.4.261-2.8.462-4.107.656a9.833 9.833 0 0 0-.85-2.355 49.14 49.14 0 0 0 10.382-2.638l1.729 2.474a30.442 30.442 0 0 1-4.211 1.245v4.993h4.569v2.84h-4.569v.462c.976 1.006 3.726 4.338 4.375 5.217zm15.308 1.6v8.355h-2.981v-7.833l-10.285 1.729-.455-2.907 10.74-1.8V258.11h2.986v18.632l3.563-.589.455 2.847zm-7.11-4.412a27.943 27.943 0 0 0-5.456-4.867l1.93-1.759a30.5 30.5 0 0 1 5.582 4.636zm.82-8.586a26.833 26.833 0 0 0-5.06-4.733l2-1.7a26.937 26.937 0 0 1 5.217 4.539z" class="cls-1" transform="translate(-247.977 -258.08)"/>
    <path id="Path_373" d="M399.275 274.914l-3.726 1.081v8.586c0 1.565-.328 2.385-1.274 2.84a11.311 11.311 0 0 1-4.636.522 11.863 11.863 0 0 0-.917-2.743h3.2c.388 0 .656-.164.656-.619v-7.736c-1.274.358-2.452.686-3.592.976l-.783-2.907 4.375-1.043V267.3h-4.017v-2.8h4.017v-6.4h2.981v6.365h3.421v2.84h-3.421v5.746l3.361-.879zm17.6-3.98a23.775 23.775 0 0 1-6.365 10.807 22.969 22.969 0 0 0 8.034 3.786 10.823 10.823 0 0 0-1.96 2.579 22.717 22.717 0 0 1-8.459-4.4 27.71 27.71 0 0 1-8.944 4.338 12.943 12.943 0 0 0-1.632-2.743 26.152 26.152 0 0 0 8.392-3.726 26.3 26.3 0 0 1-5.061-8.459l.425-.127H400v-2.772h6.708v-4.472h-7.311v-2.772h7.311v-4.9h2.981v4.9h7.542v2.772h-7.475v4.472h4.636l.522-.1zm-12.99 2.087a20.547 20.547 0 0 0 4.375 6.708 19.436 19.436 0 0 0 4.762-6.708z" class="cls-1" transform="translate(-259.228 -258.07)"/>
    <path id="Path_374" d="M443.968 265.024c-.559 1.11-1.11 2.236-1.737 3.264h15.45v16.255c0 1.632-.328 2.549-1.491 2.981s-2.981.492-5.679.492a11.514 11.514 0 0 0-.946-2.936c1.923.1 3.883.1 4.472.067s.745-.164.745-.656v-2.81h-13.259a11.79 11.79 0 0 1-3.428 6.6 10.8 10.8 0 0 0-2.184-2.385c2.743-2.512 2.981-6.067 2.981-9.107v-3.861a24.818 24.818 0 0 1-4.733 4.375 17.37 17.37 0 0 0-1.99-2.348 26.524 26.524 0 0 0 8.384-9.957h-7.647v-2.84h8.943a34.154 34.154 0 0 0 1.371-4.084l3.1.745q-.537 1.666-1.17 3.369h16.255v2.84zm10.74 14.16v-2.847h-12.76v.559a18.5 18.5 0 0 1-.1 2.288zm0-8.2h-12.76v2.81h12.737z" class="cls-1" transform="translate(-270.428 -258.07)"/>
    <path id="Path_375" d="M488.228 260.87c-.917 2.683-2.027 5.88-3.033 8.392a10.546 10.546 0 0 1 2.638 6.953c0 1.893-.388 3.264-1.334 3.987a3.726 3.726 0 0 1-1.766.648 21.016 21.016 0 0 1-2.117.067 5.791 5.791 0 0 0-.745-2.646 15.223 15.223 0 0 0 1.7.037 1.781 1.781 0 0 0 .947-.261 2.806 2.806 0 0 0 .619-2.154 9.519 9.519 0 0 0-2.608-6.275c.783-2.154 1.632-4.9 2.236-7.05h-4.017v25.824H478.1v-28.53h7.706l.425-.134zm17.693 16.4a47.19 47.19 0 0 1-5.157 3.555 13.49 13.49 0 0 0 5.843 4.867 11.067 11.067 0 0 0-2.02 2.579c-4.994-2.512-7.841-7.453-9.435-13.877h-2.646v10.024l5.217-1.207a17.5 17.5 0 0 0 .164 2.743c-6.529 1.729-7.639 2.124-8.325 2.579a10.178 10.178 0 0 0-1.341-2.452 2.825 2.825 0 0 0 1.341-2.512v-23.638h14.429v14.459h-6.2a26.979 26.979 0 0 0 1.662 4.308 36.634 36.634 0 0 0 4.472-3.555zm-13.415-14.7v3.324h8.556v-3.3zm0 9.174h8.556v-3.391h-8.556z" class="cls-1" transform="translate(-282.127 -258.493)"/>
    <path id="Path_376" d="M531.745 260.305a43.918 43.918 0 0 1-9.6 13.974 25.134 25.134 0 0 0-2.675-2.512 33.842 33.842 0 0 0 8.943-12.506zm9.174 15.249a100.307 100.307 0 0 1 7.215 11.068l-3.071 1.662a34.655 34.655 0 0 0-1.729-3.167c-16.4 1.215-18.312 1.341-19.75 1.9a17.52 17.52 0 0 0-1.207-3.272c.976-.261 1.863-1.237 3.13-2.743a64.575 64.575 0 0 0 8.1-12.566l3.525 1.438a82.2 82.2 0 0 1-9.2 13.251l13.676-.812c-1.207-1.893-2.482-3.786-3.622-5.418zm.619-16.352c1.49 4.9 4.636 9.689 8.526 12.074a16.785 16.785 0 0 0-2.355 2.981c-3.726-2.772-6.708-7.341-8.489-11.977h-5.679v-3.1z" class="cls-1" transform="translate(-292.664 -258.353)"/>
    <path id="Path_377" d="M591.824 284.6c0 1.923-.395 2.936-1.6 3.428s-3.264.619-6.171.589a14 14 0 0 0-1.043-3.3c2.094.1 4.278.1 4.9.067s.82-.194.82-.82v-20.835h-23.1v-2.9h26.17zm-6.624-15.251h-19.3v-2.676h19.3zm-14.466 13.616v2.385H567.8v-12.968h15.375v10.583zm0-7.967v5.336h9.466v-5.321z" class="cls-1" transform="translate(-304.419 -258.773)"/>
    <path id="Path_378" d="M216.54 315.827l2.012-9.607h1.312l-.835 3.987h4.979l.835-3.987h1.282l-2 9.607h-1.274l.939-4.531h-4.971l-.947 4.531z" class="cls-1" transform="translate(-215.504 -270.335)"/>
    <path id="Path_379" d="M235.35 315.477a3.525 3.525 0 0 1-2.564 1.416 1.826 1.826 0 0 1-1.3-.462 1.491 1.491 0 0 1-.5-1.133 8.668 8.668 0 0 1 .224-1.491l.842-4.017h1.178l-.932 4.472a4.233 4.233 0 0 0-.119.865.79.79 0 0 0 .238.611 1 1 0 0 0 .745.224 2.08 2.08 0 0 0 .969-.246 2.594 2.594 0 0 0 .82-.656 3.281 3.281 0 0 0 .559-.976 8.332 8.332 0 0 0 .335-1.26l.626-2.981h1.185l-1.486 6.957h-1.088z" class="cls-1" transform="translate(-219.185 -271.244)"/>
    <path id="Path_380" d="M246.749 314.286l1.155.119a3.473 3.473 0 0 1-1.148 1.632 3.153 3.153 0 0 1-2.132.745 2.876 2.876 0 0 1-1.416-.358 2.362 2.362 0 0 1-.984-1.036 3.5 3.5 0 0 1-.335-1.558 4.83 4.83 0 0 1 .529-2.236 3.771 3.771 0 0 1 1.365-1.594 3.346 3.346 0 0 1 1.811-.522 2.623 2.623 0 0 1 1.99.745 2.892 2.892 0 0 1 .745 2.109 6.3 6.3 0 0 1-.089 1.043h-5.128a3.539 3.539 0 0 0 0 .373 2.236 2.236 0 0 0 .447 1.491 1.4 1.4 0 0 0 1.1.514 2.11 2.11 0 0 0 1.2-.4 2.564 2.564 0 0 0 .894-1.066zm-3.443-1.722h3.883v-.264a1.9 1.9 0 0 0-.447-1.364 1.49 1.49 0 0 0-1.148-.477 2.139 2.139 0 0 0-1.386.522 3.131 3.131 0 0 0-.9 1.58z" class="cls-1" transform="translate(-221.961 -271.163)"/>
    <path id="Path_381" d="M252.58 315.822l1.491-6.961h1.185l-1.453 6.961zm1.737-8.28l.276-1.342h1.185l-.283 1.342z" class="cls-1" transform="translate(-224.684 -270.329)"/>
    <path id="Path_382" d="M264 315.826l2.012-9.607h2.981a7.843 7.843 0 0 1 1.207.067 2.935 2.935 0 0 1 1.081.387 1.878 1.878 0 0 1 .686.745 2.43 2.43 0 0 1-.194 2.459 2.675 2.675 0 0 1-1.334.917 2.332 2.332 0 0 1 1.17.745 1.953 1.953 0 0 1 .38 1.2 2.8 2.8 0 0 1-.455 1.491 3.041 3.041 0 0 1-1.2 1.118 3.488 3.488 0 0 1-1.677.4zm1.491-1.088h2.236a7.632 7.632 0 0 0 1.17-.06 2.707 2.707 0 0 0 .991-.358 1.826 1.826 0 0 0 .6-.663 1.878 1.878 0 0 0 .224-.894 1.252 1.252 0 0 0-.425-1.029 2.668 2.668 0 0 0-1.61-.35h-2.437zm.924-4.42h1.945a3.518 3.518 0 0 0 2-.44 1.491 1.491 0 0 0 .619-1.3 1.245 1.245 0 0 0-.194-.7 1.1 1.1 0 0 0-.507-.432 3.517 3.517 0 0 0-1.192-.134h-2.035z" class="cls-1" transform="translate(-227.593 -270.334)"/>
    <path id="Path_383" d="M281.636 315.844a4.965 4.965 0 0 1-1.193.745 3.027 3.027 0 0 1-1.215.246 2.154 2.154 0 0 1-1.55-.566 1.93 1.93 0 0 1-.589-1.453 1.952 1.952 0 0 1 .261-1.028 2 2 0 0 1 .708-.745 3.03 3.03 0 0 1 1.073-.388 11.7 11.7 0 0 1 1.491-.127 5.358 5.358 0 0 0 1.6-.238 3.16 3.16 0 0 0 .142-.8.745.745 0 0 0-.306-.648 1.923 1.923 0 0 0-1.207-.328 2.049 2.049 0 0 0-1.215.335 1.8 1.8 0 0 0-.693.939l-1.2-.1a3.13 3.13 0 0 1 1.163-1.587 3.458 3.458 0 0 1 2-.552 3.16 3.16 0 0 1 2.05.619 1.491 1.491 0 0 1 .574 1.192 5.857 5.857 0 0 1-.164 1.289l-.388 1.714a6.656 6.656 0 0 0-.179 1.342 4.473 4.473 0 0 0 .142.947h-1.2a4.057 4.057 0 0 1-.112-.8zm.432-2.661a2.911 2.911 0 0 1-.529.149c-.194.037-.507.075-.954.112a7.5 7.5 0 0 0-1.491.231 1.252 1.252 0 0 0-.641.447 1.133 1.133 0 0 0-.216.686 1.073 1.073 0 0 0 .343.82 1.4 1.4 0 0 0 .976.32 2.235 2.235 0 0 0 1.133-.313 2.311 2.311 0 0 0 .865-.872 4.837 4.837 0 0 0 .514-1.617z" class="cls-1" transform="translate(-230.926 -271.178)"/>
    <path id="Path_384" d="M287.92 315.822l1.453-6.961h1.185l-1.453 6.961zm1.729-8.28l.283-1.342h1.178l-.283 1.342z" class="cls-1" transform="translate(-233.685 -270.329)"/>
    <path id="Path_385" d="M307.048 312.394l1.267.179a5.165 5.165 0 0 1-1.751 2.512 4.211 4.211 0 0 1-2.586.857 3.666 3.666 0 0 1-2.78-1.073 4.248 4.248 0 0 1-1.021-3.056 6.119 6.119 0 0 1 1.558-4.293 4.472 4.472 0 0 1 3.451-1.491 3.659 3.659 0 0 1 2.474.82 3.227 3.227 0 0 1 1.1 2.2l-1.2.112a2.624 2.624 0 0 0-.745-1.55 2.274 2.274 0 0 0-1.535-.514 3.324 3.324 0 0 0-2.847 1.565 5.456 5.456 0 0 0-.946 3.2 3.212 3.212 0 0 0 .745 2.236 2.489 2.489 0 0 0 1.893.745 2.81 2.81 0 0 0 1.8-.648 3.674 3.674 0 0 0 1.123-1.801z" class="cls-1" transform="translate(-236.805 -270.285)"/>
    <path id="Path_386" d="M313.22 315.827l2-9.607h1.185l-.745 3.689a5.22 5.22 0 0 1 1.237-.924 2.72 2.72 0 0 1 1.17-.276 1.863 1.863 0 0 1 1.341.455 1.588 1.588 0 0 1 .477 1.207 7.709 7.709 0 0 1-.209 1.349l-.857 4.107h-1.179l.887-4.211a8.048 8.048 0 0 0 .186-1.155.745.745 0 0 0-.239-.559.976.976 0 0 0-.678-.216 2.489 2.489 0 0 0-2.139 1.259 6.868 6.868 0 0 0-.6 1.893l-.626 2.981z" class="cls-1" transform="translate(-240.129 -270.335)"/>
    <path id="Path_387" d="M329.192 315.477a3.5 3.5 0 0 1-2.556 1.416 1.856 1.856 0 0 1-1.3-.462 1.49 1.49 0 0 1-.492-1.133 8.661 8.661 0 0 1 .224-1.491l.835-4.017h1.185l-.924 4.472a4.235 4.235 0 0 0-.119.865.745.745 0 0 0 .238.611.992.992 0 0 0 .7.224 2.11 2.11 0 0 0 .976-.246 2.676 2.676 0 0 0 .82-.656 3.279 3.279 0 0 0 .559-.976 8.332 8.332 0 0 0 .335-1.26l.626-2.981h1.185l-1.453 6.961h-1.1z" class="cls-1" transform="translate(-243.089 -271.244)"/>
    <path id="Path_388" d="M340.146 315.844a4.793 4.793 0 0 1-1.185.745 3.062 3.062 0 0 1-1.222.246 2.154 2.154 0 0 1-1.55-.566 1.93 1.93 0 0 1-.589-1.453 2.027 2.027 0 0 1 .261-1.028 2 2 0 0 1 .708-.745 3.032 3.032 0 0 1 1.073-.388 11.7 11.7 0 0 1 1.491-.127 5.359 5.359 0 0 0 1.6-.238 2.86 2.86 0 0 0 .142-.8.745.745 0 0 0-.306-.648 1.915 1.915 0 0 0-1.2-.328 2.064 2.064 0 0 0-1.222.335 1.8 1.8 0 0 0-.693.939l-1.2-.1a3.13 3.13 0 0 1 1.163-1.587 3.458 3.458 0 0 1 2-.552 3.16 3.16 0 0 1 2.049.619 1.491 1.491 0 0 1 .574 1.193 5.863 5.863 0 0 1-.164 1.289l-.388 1.729a6.661 6.661 0 0 0-.179 1.342 4.472 4.472 0 0 0 .142.947h-1.2a4.059 4.059 0 0 1-.105-.824zm.44-2.661a3.166 3.166 0 0 1-.537.149c-.194.037-.507.074-.954.112a7.5 7.5 0 0 0-1.491.231 1.252 1.252 0 0 0-.641.447 1.185 1.185 0 0 0-.216.686 1.073 1.073 0 0 0 .343.82 1.416 1.416 0 0 0 .976.32 2.236 2.236 0 0 0 1.133-.313 2.311 2.311 0 0 0 .865-.872 5.008 5.008 0 0 0 .522-1.617z" class="cls-1" transform="translate(-245.83 -271.178)"/>
    <path id="Path_389" d="M346.49 316.676l1.491-6.961h1.073l-.261 1.215a5.747 5.747 0 0 1 1.312-1.043 2.631 2.631 0 0 1 1.245-.328 1.841 1.841 0 0 1 1.327.462 1.6 1.6 0 0 1 .484 1.222 7.079 7.079 0 0 1-.171 1.222l-.9 4.211h-1.19l.924-4.412a5.338 5.338 0 0 0 .142-.947.745.745 0 0 0-.246-.566.991.991 0 0 0-.686-.216 2.318 2.318 0 0 0-1.625.656 4.234 4.234 0 0 0-1.043 2.236l-.678 3.242z" class="cls-1" transform="translate(-248.604 -271.184)"/>
    <path id="Path_390" d="M366.689 315.827l1.774-8.511h-3.153l.231-1.1h7.559l-.231 1.1h-3.123l-1.774 8.511z" class="cls-1" transform="translate(-253.398 -270.335)"/>
    <path id="Path_391" d="M379.279 314.286l1.155.119a3.458 3.458 0 0 1-1.14 1.632 3.167 3.167 0 0 1-2.131.745 2.906 2.906 0 0 1-1.424-.358 2.385 2.385 0 0 1-.976-1.036 3.4 3.4 0 0 1-.343-1.558 4.926 4.926 0 0 1 .529-2.236 3.771 3.771 0 0 1 1.364-1.6 3.354 3.354 0 0 1 1.819-.522 2.646 2.646 0 0 1 1.99.745 2.922 2.922 0 0 1 .745 2.109 6.3 6.3 0 0 1-.089 1.043h-5.12a2.337 2.337 0 0 0 0 .373 2.236 2.236 0 0 0 .447 1.491 1.416 1.416 0 0 0 1.1.514 2.087 2.087 0 0 0 1.192-.4 2.565 2.565 0 0 0 .882-1.061zm-3.443-1.722h3.905v-.264a1.9 1.9 0 0 0-.447-1.364 1.491 1.491 0 0 0-1.148-.477 2.139 2.139 0 0 0-1.386.522 3.182 3.182 0 0 0-.924 1.583z" class="cls-1" transform="translate(-255.718 -271.163)"/>
    <path id="Path_392" d="M390.07 314.14l1.185.119a3.972 3.972 0 0 1-1.267 1.938 2.981 2.981 0 0 1-1.871.634 2.422 2.422 0 0 1-1.833-.745 2.832 2.832 0 0 1-.745-2.05 5.738 5.738 0 0 1 .455-2.236 3.547 3.547 0 0 1 1.3-1.677 3.331 3.331 0 0 1 1.915-.574 2.444 2.444 0 0 1 1.781.633 2.236 2.236 0 0 1 .656 1.677l-1.17.075a1.49 1.49 0 0 0-.38-1.036 1.364 1.364 0 0 0-.991-.373 1.834 1.834 0 0 0-1.245.455 3.041 3.041 0 0 0-.82 1.371 5.642 5.642 0 0 0-.3 1.774 1.983 1.983 0 0 0 .4 1.334 1.23 1.23 0 0 0 .969.447 1.721 1.721 0 0 0 1.1-.44 2.892 2.892 0 0 0 .861-1.326z" class="cls-1" transform="translate(-258.549 -271.181)"/>
    <path id="Path_393" d="M395.26 315.827l2.042-9.607h1.185l-.745 3.689a5.084 5.084 0 0 1 1.23-.924 2.75 2.75 0 0 1 1.178-.276 1.863 1.863 0 0 1 1.341.455 1.588 1.588 0 0 1 .477 1.207 7.706 7.706 0 0 1-.209 1.349l-.857 4.107h-1.185l.879-4.211a8.564 8.564 0 0 0 .194-1.155.745.745 0 0 0-.239-.559.976.976 0 0 0-.678-.216 2.445 2.445 0 0 0-1.23.335 2.407 2.407 0 0 0-.909.924 6.865 6.865 0 0 0-.6 1.893l-.626 2.981z" class="cls-1" transform="translate(-261.026 -270.335)"/>
    <path id="Path_394" d="M406.35 316.677l1.453-6.961h1.073l-.253 1.215a5.592 5.592 0 0 1 1.312-1.043 2.609 2.609 0 0 1 1.245-.328 1.856 1.856 0 0 1 1.327.462 1.6 1.6 0 0 1 .477 1.222 6.4 6.4 0 0 1-.171 1.222l-.879 4.211h-1.185l.924-4.412a5.158 5.158 0 0 0 .134-.947.745.745 0 0 0-.238-.566 1.006 1.006 0 0 0-.693-.216 2.3 2.3 0 0 0-1.617.656 4.121 4.121 0 0 0-1.043 2.236l-.678 3.242z" class="cls-1" transform="translate(-263.851 -271.184)"/>
    <path id="Path_395" d="M417.719 314.031a4.852 4.852 0 0 1 1.2-3.369 3.3 3.3 0 0 1 2.594-1.1 2.69 2.69 0 0 1 2.027.79 2.884 2.884 0 0 1 .745 2.117 5.135 5.135 0 0 1-.484 2.236 3.622 3.622 0 0 1-3.257 2.132 3.175 3.175 0 0 1-1.491-.35 2.393 2.393 0 0 1-1.014-.984 2.982 2.982 0 0 1-.32-1.472zm1.185-.112a2.094 2.094 0 0 0 .477 1.491 1.558 1.558 0 0 0 1.192.507 1.923 1.923 0 0 0 .745-.156 2.236 2.236 0 0 0 .7-.47 3.242 3.242 0 0 0 .544-.745 4.569 4.569 0 0 0 .365-.872 4.159 4.159 0 0 0 .2-1.237 2.087 2.087 0 0 0-.477-1.491 1.535 1.535 0 0 0-1.192-.522 1.96 1.96 0 0 0-1.014.268 2.7 2.7 0 0 0-.835.745 3.443 3.443 0 0 0-.537 1.185 4.837 4.837 0 0 0-.171 1.3z" class="cls-1" transform="translate(-266.746 -271.184)"/>
    <path id="Path_396" d="M428.41 315.827l2-9.607h1.19l-2 9.607z" class="cls-1" transform="translate(-269.47 -270.335)"/>
    <path id="Path_397" d="M433.889 314.021a4.852 4.852 0 0 1 1.2-3.4 3.3 3.3 0 0 1 2.594-1.1 2.69 2.69 0 0 1 2.027.79 2.884 2.884 0 0 1 .745 2.117 5.134 5.134 0 0 1-.484 2.236 3.622 3.622 0 0 1-3.257 2.132 3.174 3.174 0 0 1-1.49-.35 2.391 2.391 0 0 1-1.014-.984 2.98 2.98 0 0 1-.321-1.441zm1.185-.112a2.094 2.094 0 0 0 .477 1.491 1.558 1.558 0 0 0 1.193.507 1.923 1.923 0 0 0 .745-.157 2.235 2.235 0 0 0 .7-.469 3.245 3.245 0 0 0 .544-.745 4.571 4.571 0 0 0 .365-.872 4.159 4.159 0 0 0 .2-1.237 2.086 2.086 0 0 0-.477-1.491 1.535 1.535 0 0 0-1.192-.522 1.961 1.961 0 0 0-1.014.268 2.706 2.706 0 0 0-.835.745 3.443 3.443 0 0 0-.537 1.185 4.833 4.833 0 0 0-.171 1.3z" class="cls-1" transform="translate(-270.864 -271.174)"/>
    <path id="Path_398" d="M444.589 317.353l1.2.112a1.245 1.245 0 0 0 .1.611.745.745 0 0 0 .358.313 2.034 2.034 0 0 0 .827.142 1.938 1.938 0 0 0 1.55-.552 4.345 4.345 0 0 0 .566-1.625l.119-.566a2.728 2.728 0 0 1-1.968.939 2.236 2.236 0 0 1-1.759-.783 3.1 3.1 0 0 1-.745-2.191 4.472 4.472 0 0 1 1.893-3.644 2.981 2.981 0 0 1 1.595-.5 2.318 2.318 0 0 1 2.109 1.3l.231-1.14h1.088l-1.4 6.708a5.447 5.447 0 0 1-.6 1.729 2.466 2.466 0 0 1-1.036.954 3.257 3.257 0 0 1-1.535.343 4.189 4.189 0 0 1-1.446-.216 1.789 1.789 0 0 1-.9-.634 1.565 1.565 0 0 1-.3-.954 2.025 2.025 0 0 1 .06-.343zm1.491-3.726a3.3 3.3 0 0 0 .134 1.073 1.692 1.692 0 0 0 .566.745 1.312 1.312 0 0 0 .8.268 2.042 2.042 0 0 0 1.163-.41 2.921 2.921 0 0 0 .932-1.267 4.263 4.263 0 0 0 .358-1.64 1.893 1.893 0 0 0-.477-1.364 1.527 1.527 0 0 0-1.178-.514 1.654 1.654 0 0 0-.835.238 2.4 2.4 0 0 0-.745.708 3.39 3.39 0 0 0-.529 1.133 4.2 4.2 0 0 0-.2 1.029z" class="cls-1" transform="translate(-273.576 -271.198)"/>
    <path id="Path_399" d="M455.19 319.414l.075-1.11a2.721 2.721 0 0 0 .745.1.992.992 0 0 0 .581-.164 2.727 2.727 0 0 0 .626-.812l.38-.686-1.155-6.976h1.158l.529 3.518c.1.693.194 1.394.268 2.087l3.108-5.6h1.237l-4.472 7.885a4.859 4.859 0 0 1-1.14 1.491 1.8 1.8 0 0 1-1.14.373 2.542 2.542 0 0 1-.8-.106z" class="cls-1" transform="translate(-276.291 -271.239)"/>
    <path id="Path_400" d="M479.858 312.394l1.267.179a5.165 5.165 0 0 1-1.751 2.512 4.211 4.211 0 0 1-2.586.857 3.637 3.637 0 0 1-2.773-1.073 4.219 4.219 0 0 1-1.029-3.056 6.119 6.119 0 0 1 1.558-4.293 4.472 4.472 0 0 1 3.451-1.491 3.659 3.659 0 0 1 2.474.82 3.227 3.227 0 0 1 1.1 2.2l-1.192.112a2.631 2.631 0 0 0-.745-1.55 2.274 2.274 0 0 0-1.535-.514 3.324 3.324 0 0 0-2.847 1.565 5.456 5.456 0 0 0-.947 3.2 3.213 3.213 0 0 0 .745 2.236 2.489 2.489 0 0 0 1.893.745 2.81 2.81 0 0 0 1.8-.648 3.674 3.674 0 0 0 1.118-1.8z" class="cls-1" transform="translate(-280.822 -270.285)"/>
    <path id="Path_401" d="M486.309 314.031a4.852 4.852 0 0 1 1.2-3.369 3.324 3.324 0 0 1 2.594-1.1 2.691 2.691 0 0 1 2.027.79 2.892 2.892 0 0 1 .745 2.117 5.135 5.135 0 0 1-.492 2.236 3.6 3.6 0 0 1-3.257 2.132 3.122 3.122 0 0 1-1.491-.35 2.407 2.407 0 0 1-1.021-.984 2.98 2.98 0 0 1-.306-1.468zm1.185-.112a2.131 2.131 0 0 0 .477 1.491 1.572 1.572 0 0 0 1.2.507 1.944 1.944 0 0 0 .745-.157 2.28 2.28 0 0 0 .693-.47 3.244 3.244 0 0 0 .544-.745 4.682 4.682 0 0 0 .566-2.109 2.087 2.087 0 0 0-.477-1.491 1.49 1.49 0 0 0-1.192-.522 1.96 1.96 0 0 0-1.014.268 2.609 2.609 0 0 0-.827.745 3.459 3.459 0 0 0-.544 1.185 4.836 4.836 0 0 0-.171 1.298z" class="cls-1" transform="translate(-284.216 -271.184)"/>
    <path id="Path_402" d="M497.11 316.676l1.491-6.961h1.185l-.246 1.148a4.667 4.667 0 0 1 1.185-1.021 2.333 2.333 0 0 1 1.125-.283 1.7 1.7 0 0 1 1.088.343 1.662 1.662 0 0 1 .574.961 3.726 3.726 0 0 1 1.118-.976 2.489 2.489 0 0 1 1.23-.328 1.848 1.848 0 0 1 1.312.417 1.491 1.491 0 0 1 .432 1.155 6.367 6.367 0 0 1-.149 1.058l-.939 4.472H505.3l.954-4.6a3.947 3.947 0 0 0 .127-.8.745.745 0 0 0-.216-.544.894.894 0 0 0-.611-.194 2.14 2.14 0 0 0-1.081.32 2.3 2.3 0 0 0-.85.842 5.358 5.358 0 0 0-.537 1.6l-.708 3.376h-1.185l.984-4.7a3.853 3.853 0 0 0 .1-.678.728.728 0 0 0-.768-.76 2.109 2.109 0 0 0-1.058.32 2.586 2.586 0 0 0-.9.894 5.41 5.41 0 0 0-.566 1.632l-.693 3.294z" class="cls-1" transform="translate(-286.969 -271.183)"/>
    <path id="Path_403" d="M512.41 319.338l2.012-9.622h1.1l-.2.969a4.278 4.278 0 0 1 1.088-.879 2.236 2.236 0 0 1 1.021-.246 2.109 2.109 0 0 1 1.647.745 2.981 2.981 0 0 1 .656 2.072 5.278 5.278 0 0 1-.358 1.982 4.346 4.346 0 0 1-.887 1.438 3.564 3.564 0 0 1-1.058.8 2.52 2.52 0 0 1-1.1.261 2.124 2.124 0 0 1-1.938-1.274l-.745 3.779zm2.348-5.508a3.527 3.527 0 0 0 .112 1.081 1.536 1.536 0 0 0 .537.693 1.491 1.491 0 0 0 .865.261 1.878 1.878 0 0 0 1.654-1.155 4.822 4.822 0 0 0 .626-2.348 1.99 1.99 0 0 0-.425-1.364 1.342 1.342 0 0 0-1.051-.484 1.491 1.491 0 0 0-.835.246 2.384 2.384 0 0 0-.745.708 4.748 4.748 0 0 0-.745 2.363z" class="cls-1" transform="translate(-290.866 -271.185)"/>
    <path id="Path_404" d="M529.026 315.849a4.793 4.793 0 0 1-1.185.745 3.025 3.025 0 0 1-1.215.246 2.176 2.176 0 0 1-1.558-.566 2.094 2.094 0 0 1-.32-2.482 2.034 2.034 0 0 1 .7-.745 3.092 3.092 0 0 1 1.073-.388 11.861 11.861 0 0 1 1.491-.127 5.4 5.4 0 0 0 1.6-.239 3.1 3.1 0 0 0 .134-.8.745.745 0 0 0-.3-.648 1.923 1.923 0 0 0-1.207-.328 2.08 2.08 0 0 0-1.222.335 1.885 1.885 0 0 0-.693.939l-1.192-.1a3.048 3.048 0 0 1 1.222-1.573 3.458 3.458 0 0 1 2-.552 3.138 3.138 0 0 1 2.042.619 1.438 1.438 0 0 1 .574 1.192 6.278 6.278 0 0 1-.156 1.289l-.388 1.729a6.239 6.239 0 0 0-.186 1.342 4.993 4.993 0 0 0 .142.946H529.2a4.533 4.533 0 0 1-.174-.834zm.44-2.661a2.824 2.824 0 0 1-.537.149c-.186.037-.507.075-.954.112a7.711 7.711 0 0 0-1.491.231 1.282 1.282 0 0 0-.641.447 1.185 1.185 0 0 0-.216.686 1.1 1.1 0 0 0 .343.82 1.416 1.416 0 0 0 .984.321 2.31 2.31 0 0 0 1.99-1.185 5.007 5.007 0 0 0 .522-1.617z" class="cls-1" transform="translate(-293.94 -271.183)"/>
    <path id="Path_405" d="M535.38 316.677l1.491-6.961h1.073l-.253 1.215a5.439 5.439 0 0 1 1.309-1.044 2.608 2.608 0 0 1 1.245-.328 1.863 1.863 0 0 1 1.327.462 1.6 1.6 0 0 1 .477 1.222 7.068 7.068 0 0 1-.171 1.222l-.878 4.212h-1.185l.917-4.412a4.719 4.719 0 0 0 .142-.947.746.746 0 0 0-.239-.566 1.014 1.014 0 0 0-.693-.216 2.3 2.3 0 0 0-1.617.656 4.174 4.174 0 0 0-1.051 2.236l-.671 3.242z" class="cls-1" transform="translate(-296.716 -271.184)"/>
    <path id="Path_406" d="M545.87 319.414l.075-1.11a2.722 2.722 0 0 0 .745.1.992.992 0 0 0 .581-.164 2.728 2.728 0 0 0 .626-.812l.38-.686-1.155-6.976h1.163l.522 3.518c.1.693.194 1.394.268 2.087l3.115-5.6h1.23l-4.472 7.885a4.86 4.86 0 0 1-1.14 1.491 1.841 1.841 0 0 1-1.148.373 2.467 2.467 0 0 1-.79-.1z" class="cls-1" transform="translate(-299.388 -271.239)"/>
    <path id="Path_407" d="M555.453 318.649l.283-1.349h1.349l-.246 1.178a3.166 3.166 0 0 1-.686 1.543 1.8 1.8 0 0 1-1.1.566l.112-.522c.514-.142.857-.619 1.029-1.416z" class="cls-1" transform="translate(-301.727 -273.157)"/>
    <path id="Path_408" d="M567.5 315.827l2-9.607h1.282l-1.774 8.519H574l-.231 1.088z" class="cls-1" transform="translate(-304.898 -270.335)"/>
    <path id="Path_409" d="M581.339 314.888l-.194.976a3.6 3.6 0 0 1-.827.1 1.722 1.722 0 0 1-1.125-.343.887.887 0 0 1-.313-.745 6.422 6.422 0 0 1 .171-1.051l.842-4.047h-.924l.194-.917h.939l.358-1.707 1.356-.82-.529 2.527h1.163l-.194.917h-1.163l-.8 3.846a7.953 7.953 0 0 0-.149.879.4.4 0 0 0 .119.32.582.582 0 0 0 .4.112 2.823 2.823 0 0 0 .686-.052z" class="cls-1" transform="translate(-307.796 -270.365)"/>
    <path id="Path_410" d="M589.324 314.813a2.855 2.855 0 0 1-2.124 1.17 2.139 2.139 0 0 1-1.647-.745 3.07 3.07 0 0 1-.656-2.124 5.111 5.111 0 0 1 .522-2.318 3.934 3.934 0 0 1 1.3-1.58 2.847 2.847 0 0 1 1.565-.522 2.109 2.109 0 0 1 1.96 1.252l.745-3.726h1.185l-1.99 9.607h-1.1zm-3.25-1.9a3.576 3.576 0 0 0 .142 1.14 1.49 1.49 0 0 0 .492.7 1.3 1.3 0 0 0 .835.276 1.856 1.856 0 0 0 1.491-.835 4.338 4.338 0 0 0 .879-2.75 1.834 1.834 0 0 0-.432-1.289 1.431 1.431 0 0 0-1.088-.47 1.6 1.6 0 0 0-.745.194 2.236 2.236 0 0 0-.7.641 4.29 4.29 0 0 0-.574 1.155 3.99 3.99 0 0 0-.3 1.237z" class="cls-1" transform="translate(-309.327 -270.335)"/>
    <path id="Path_411" d="M596.08 318.649l.276-1.349h1.344l-.291 1.349z" class="cls-1" transform="translate(-312.177 -273.157)"/>
</svg>
