<svg xmlns="http://www.w3.org/2000/svg" id="btn_homepage_XMLID_1011_" width="75.386" height="75.389" viewBox="0 0 75.386 75.389">
    <defs>
        <style>
            .cls-1{fill:#7c9eb2}
        </style>
    </defs>
    <g id="XMLID_217_">
        <path id="XMLID_218_" d="M103.482 44a1.473 1.473 0 1 0 1.041.431 1.483 1.483 0 0 0-1.041-.431z" class="cls-1" transform="translate(-86.992 -37.521)"/>
        <path id="XMLID_1591_" d="M55.482 44a1.473 1.473 0 1 0 1.041.431A1.483 1.483 0 0 0 55.482 44z" class="cls-1" transform="translate(-46.059 -37.521)"/>
        <path id="XMLID_1675_" d="M151.482 44a1.473 1.473 0 1 0 1.041.431 1.483 1.483 0 0 0-1.041-.431z" class="cls-1" transform="translate(-127.924 -37.521)"/>
        <path id="XMLID_1676_" d="M165.718 360.02H153.4a1.472 1.472 0 1 0 0 2.945h12.319a1.472 1.472 0 1 0 0-2.945z" class="cls-1" transform="translate(-129.559 -307.011)"/>
        <path id="XMLID_1678_" d="M289.182 360.02a1.473 1.473 0 1 0 1.041.431 1.481 1.481 0 0 0-1.041-.431z" class="cls-1" transform="translate(-245.349 -307.011)"/>
        <path id="XMLID_1682_" d="M341.562 360.02a1.473 1.473 0 1 0 1.041.431 1.484 1.484 0 0 0-1.041-.431z" class="cls-1" transform="translate(-290.017 -307.011)"/>
        <path id="XMLID_1683_" d="M165.718 184.02H153.4a1.472 1.472 0 1 0 0 2.945h12.319a1.472 1.472 0 0 0 0-2.945z" class="cls-1" transform="translate(-129.559 -156.925)"/>
        <path id="XMLID_1686_" d="M289.182 184.02a1.473 1.473 0 1 0 1.041.431 1.483 1.483 0 0 0-1.041-.431z" class="cls-1" transform="translate(-245.349 -156.925)"/>
        <path id="XMLID_1726_" d="M341.562 184.02a1.473 1.473 0 1 0 1.041.431 1.484 1.484 0 0 0-1.041-.431z" class="cls-1" transform="translate(-290.017 -156.925)"/>
        <path id="XMLID_1727_" d="M165.718 272.02H153.4a1.472 1.472 0 1 0 0 2.945h12.319a1.472 1.472 0 1 0 0-2.945z" class="cls-1" transform="translate(-129.559 -231.968)"/>
        <path id="XMLID_1728_" d="M289.182 272.02a1.473 1.473 0 1 0 1.041.431 1.481 1.481 0 0 0-1.041-.431z" class="cls-1" transform="translate(-245.349 -231.968)"/>
        <path id="XMLID_1729_" d="M341.562 272.02a1.473 1.473 0 1 0 1.041.431 1.484 1.484 0 0 0-1.041-.431z" class="cls-1" transform="translate(-290.017 -231.968)"/>
        <path id="XMLID_1741_" d="M69.212 0H6.194A6.191 6.191 0 0 0 .01 6.184v44.164a6.191 6.191 0 0 0 6.184 6.184h9.423v1.483a4.422 4.422 0 0 0 4.417 4.417h16.2V65.6a5.028 5.028 0 0 0-3.312 3.312H17.09a1.472 1.472 0 1 0 0 2.945h15.828a5.006 5.006 0 0 0 9.57 0h15.829a1.472 1.472 0 0 0 0-2.945H42.488a5.028 5.028 0 0 0-3.312-3.312v-3.168h16.2a4.422 4.422 0 0 0 4.417-4.417v-1.483h9.423a6.191 6.191 0 0 0 6.184-6.184V6.184A6.191 6.191 0 0 0 69.212 0zM37.7 72.445a2.061 2.061 0 1 1 2.061-2.061 2.064 2.064 0 0 1-2.061 2.061zM18.562 32.1v-7.066a1.474 1.474 0 0 1 1.472-1.472h35.338a1.474 1.474 0 0 1 1.472 1.472V32.1a1.474 1.474 0 0 1-1.472 1.472H20.035a1.474 1.474 0 0 1-1.473-1.472zm0 12.957v-7.066a1.474 1.474 0 0 1 1.472-1.472h35.338a1.474 1.474 0 0 1 1.472 1.472v7.067a1.474 1.474 0 0 1-1.472 1.472H20.035a1.474 1.474 0 0 1-1.473-1.472zm36.81 14.429H20.035a1.474 1.474 0 0 1-1.472-1.472v-7.066a1.474 1.474 0 0 1 1.472-1.472h35.337a1.474 1.474 0 0 1 1.472 1.472v7.067a1.474 1.474 0 0 1-1.472 1.473zm13.84-5.9h-9.423v-2.64A4.4 4.4 0 0 0 58.661 48a4.4 4.4 0 0 0 1.128-2.945v-7.064a4.4 4.4 0 0 0-1.128-2.945 4.4 4.4 0 0 0 1.128-2.946v-7.066a4.422 4.422 0 0 0-4.417-4.417H20.035a4.422 4.422 0 0 0-4.417 4.417V32.1a4.4 4.4 0 0 0 1.128 2.945 4.4 4.4 0 0 0-1.128 2.945v7.067A4.4 4.4 0 0 0 16.746 48a4.4 4.4 0 0 0-1.128 2.945v2.64H6.194a3.243 3.243 0 0 1-3.239-3.239V15.9h28.123a1.472 1.472 0 0 0 0-2.945H2.955V6.184a3.243 3.243 0 0 1 3.239-3.239h63.018a3.243 3.243 0 0 1 3.239 3.239v6.773H44.329a1.472 1.472 0 1 0 0 2.945h28.123v34.446a3.243 3.243 0 0 1-3.24 3.24z" class="cls-1" transform="translate(-.01)"/>
        <path id="XMLID_1759_" d="M247.482 88a1.473 1.473 0 1 0 1.041.431 1.483 1.483 0 0 0-1.041-.431z" class="cls-1" transform="translate(-209.789 -75.043)"/>
    </g>
</svg>
