<svg xmlns="http://www.w3.org/2000/svg" id="icon_icloud" width="75.245" height="75.245" viewBox="0 0 75.245 75.245">
    <defs>
        <style>
            .cls-1{fill:#7c9eb2}
        </style>
    </defs>
    <path id="Path_1" d="M147.906 298.62v-19.244a1.2 1.2 0 0 0-1.2-1.2h-8a1.2 1.2 0 1 0 0 2.4h6.8v18.044a5.2 5.2 0 1 0 2.4 0zm-1.2 7.863a2.8 2.8 0 1 1 2.8-2.8 2.8 2.8 0 0 1-2.801 2.801z" class="cls-1" transform="translate(-115.487 -233.641)"/>
    <path id="Path_2" d="M227.907 298.62v-19.244a1.2 1.2 0 0 0-1.2-1.2h-8a1.2 1.2 0 1 0 0 2.4h6.8v18.044a5.2 5.2 0 1 0 2.4 0zm-1.2 7.863a2.8 2.8 0 1 1 2.8-2.8 2.8 2.8 0 0 1-2.801 2.801z" class="cls-1" transform="translate(-182.68 -233.641)"/>
    <path id="Path_3" d="M315.511 290.474a5.211 5.211 0 0 0-5.062 4h-2.543v-15.1a1.2 1.2 0 0 0-1.2-1.2h-8a1.2 1.2 0 1 0 0 2.4h6.8v15.1a1.2 1.2 0 0 0 1.2 1.2h3.743a5.2 5.2 0 1 0 5.062-6.4zm0 8a2.8 2.8 0 1 1 2.8-2.8 2.8 2.8 0 0 1-2.8 2.805z" class="cls-1" transform="translate(-249.872 -233.641)"/>
    <path id="Path_4" d="M72.386 25.865a13.033 13.033 0 0 0-6.262-4.257A22.731 22.731 0 0 0 24.04 10.852a10.38 10.38 0 0 0-13.251 7.706 14.421 14.421 0 0 0 3.631 28.378h2.79v13.9h-2.543a5.2 5.2 0 1 0 0 2.4h3.744a1.2 1.2 0 0 0 1.2-1.2v-16.3a1.2 1.2 0 0 0-1.2-1.2H14.42a12.019 12.019 0 0 1-2.352-23.806 1.2 1.2 0 0 0 .957-1.022 7.974 7.974 0 0 1 11.066-6.275 1.2 1.2 0 0 0 1.528-.521 20.33 20.33 0 0 1 38.129 9.633 1.2 1.2 0 0 0 .93 1.159 10.553 10.553 0 0 1-2.388 20.831h-.653a1.2 1.2 0 1 0 0 2.4h.653a12.954 12.954 0 0 0 10.1-21.071zM9.606 64.839a2.8 2.8 0 1 1 2.8-2.8 2.8 2.8 0 0 1-2.8 2.8z" class="cls-1"/>
    <path id="Path_5" d="M354 108.06h.011a1.2 1.2 0 0 0 1.19-1.212 16.156 16.156 0 0 0-1.11-5.752 1.2 1.2 0 0 0-2.237.874 13.761 13.761 0 0 1 .945 4.9 1.2 1.2 0 0 0 1.201 1.19z" class="cls-1" transform="translate(-295.456 -84.269)"/>
    <path id="Path_6" d="M275.662 47.485a1.2 1.2 0 1 0 1.851-1.529A16.287 16.287 0 0 0 264.928 40a1.2 1.2 0 1 0 0 2.4 13.894 13.894 0 0 1 10.734 5.085z" class="cls-1" transform="translate(-221.505 -33.596)"/>
</svg>
